REM DIRINDEX 1\2,1\3,1\4,1\5
REM DIRNAME folder01,folder02,folder03,folder04,folder05
TITLE ""
FILE "1Q_t_0989-0998.mp3" MP3
  TRACK 01 AUDIO
    TITLE "3:cjc004_3871"
    INDEX 01 00:00:00
  TRACK 02 AUDIO
    TITLE "0:"
    INDEX 01 00:00:68
  TRACK 03 AUDIO
    TITLE "4:cjc004_3872"
    INDEX 01 00:01:15
  TRACK 04 AUDIO
    TITLE "0:"
    INDEX 01 00:02:40
  TRACK 05 AUDIO
    TITLE "5:cjc004_3873"
    INDEX 01 00:02:63
  TRACK 06 AUDIO
    TITLE "0:"
    INDEX 01 00:06:71
  TRACK 07 AUDIO
    TITLE "3:cjc004_3874"
    INDEX 01 00:07:47
  TRACK 08 AUDIO
    TITLE "0:"
    INDEX 01 00:08:62
  TRACK 09 AUDIO
    TITLE "4:cjc004_3875"
    INDEX 01 00:09:10
  TRACK 10 AUDIO
    TITLE "0:"
    INDEX 01 00:10:51
  TRACK 11 AUDIO
    TITLE "5:cjc004_3876"
    INDEX 01 00:10:74
  TRACK 12 AUDIO
    TITLE "0:"
    INDEX 01 00:16:22
  TRACK 13 AUDIO
    TITLE "3:cjc004_3877"
    INDEX 01 00:17:02
  TRACK 14 AUDIO
    TITLE "0:"
    INDEX 01 00:18:23
  TRACK 15 AUDIO
    TITLE "4:cjc004_3878"
    INDEX 01 00:18:50
  TRACK 16 AUDIO
    TITLE "0:"
    INDEX 01 00:19:58
  TRACK 17 AUDIO
    TITLE "5:cjc004_3879"
    INDEX 01 00:20:06
  TRACK 18 AUDIO
    TITLE "0:"
    INDEX 01 00:24:39
  TRACK 19 AUDIO
    TITLE "3:cjc004_3880"
    INDEX 01 00:25:25
  TRACK 20 AUDIO
    TITLE "0:"
    INDEX 01 00:26:46
  TRACK 21 AUDIO
    TITLE "4:cjc004_3881"
    INDEX 01 00:26:69
  TRACK 22 AUDIO
    TITLE "0:"
    INDEX 01 00:28:21
  TRACK 23 AUDIO
    TITLE "5:cjc004_3882"
    INDEX 01 00:28:49
  TRACK 24 AUDIO
    TITLE "0:"
    INDEX 01 00:33:50
  TRACK 25 AUDIO
    TITLE "3:cjc004_3883"
    INDEX 01 00:34:24
  TRACK 26 AUDIO
    TITLE "0:"
    INDEX 01 00:35:55
  TRACK 27 AUDIO
    TITLE "4:cjc004_3884"
    INDEX 01 00:36:11
  TRACK 28 AUDIO
    TITLE "0:"
    INDEX 01 00:37:12
  TRACK 29 AUDIO
    TITLE "5:cjc004_3885"
    INDEX 01 00:37:36
  TRACK 30 AUDIO
    TITLE "0:"
    INDEX 01 00:44:18
  TRACK 31 AUDIO
    TITLE "3:cjc004_3886"
    INDEX 01 00:44:71
  TRACK 32 AUDIO
    TITLE "0:"
    INDEX 01 00:46:02
  TRACK 33 AUDIO
    TITLE "4:cjc004_3887"
    INDEX 01 00:46:33
  TRACK 34 AUDIO
    TITLE "0:"
    INDEX 01 00:47:36
  TRACK 35 AUDIO
    TITLE "5:cjc004_3888"
    INDEX 01 00:47:56
  TRACK 36 AUDIO
    TITLE "0:"
    INDEX 01 00:52:06
  TRACK 37 AUDIO
    TITLE "3:cjc004_3889"
    INDEX 01 00:52:61
  TRACK 38 AUDIO
    TITLE "0:"
    INDEX 01 00:53:74
  TRACK 39 AUDIO
    TITLE "4:cjc004_3890"
    INDEX 01 00:54:29
  TRACK 40 AUDIO
    TITLE "0:"
    INDEX 01 00:55:28
  TRACK 41 AUDIO
    TITLE "5:cjc004_3891"
    INDEX 01 00:55:51
  TRACK 42 AUDIO
    TITLE "0:"
    INDEX 01 01:01:19
  TRACK 43 AUDIO
    TITLE "3:cjc004_3892"
    INDEX 01 01:01:72
  TRACK 44 AUDIO
    TITLE "0:"
    INDEX 01 01:03:18
  TRACK 45 AUDIO
    TITLE "4:cjc004_3893"
    INDEX 01 01:03:43
  TRACK 46 AUDIO
    TITLE "0:"
    INDEX 01 01:04:48
  TRACK 47 AUDIO
    TITLE "5:cjc004_3894"
    INDEX 01 01:04:72
  TRACK 48 AUDIO
    TITLE "0:"
    INDEX 01 01:09:36
  TRACK 49 AUDIO
    TITLE "3:cjc004_3895"
    INDEX 01 01:10:12
  TRACK 50 AUDIO
    TITLE "0:"
    INDEX 01 01:11:52
  TRACK 51 AUDIO
    TITLE "4:cjc004_3896"
    INDEX 01 01:12:05
  TRACK 52 AUDIO
    TITLE "0:"
    INDEX 01 01:13:26
  TRACK 53 AUDIO
    TITLE "5:cjc004_3897"
    INDEX 01 01:13:51
  TRACK 54 AUDIO
    TITLE "0:"
    INDEX 01 01:17:51
  TRACK 55 AUDIO
    TITLE "3:cjc004_3898"
    INDEX 01 01:18:27
  TRACK 56 AUDIO
    TITLE "0:"
    INDEX 01 01:19:56
  TRACK 57 AUDIO
    TITLE "4:cjc004_3899"
    INDEX 01 01:20:10
  TRACK 58 AUDIO
    TITLE "0:"
    INDEX 01 01:21:12
  TRACK 59 AUDIO
    TITLE "5:cjc004_3900"
    INDEX 01 01:21:39
  TRACK 60 AUDIO
    TITLE "0:"
    INDEX 01 01:25:72
